<svg width="111" height="112" viewBox="0 0 111 112" fill="none" xmlns="http://www.w3.org/2000/svg">
<g clip-path="url(#clip0_4284_5068)">
<path d="M64.3638 28.6753C62.86 26.7315 60.8122 25.2786 58.4808 24.5012L52.4614 22.5472C51.999 22.3826 51.5989 22.079 51.316 21.678C51.033 21.277 50.8812 20.7983 50.8812 20.3075C50.8812 19.8167 51.033 19.338 51.316 18.937C51.5989 18.536 51.999 18.2324 52.4614 18.0679L58.4785 16.1138C60.2606 15.4991 61.8791 14.486 63.2107 13.1516C64.5423 11.8172 65.552 10.1966 66.1629 8.41317L66.2138 8.26517L68.1702 2.25267C68.3332 1.78846 68.6363 1.38632 69.0377 1.10184C69.4391 0.817351 69.919 0.664551 70.411 0.664551C70.903 0.664551 71.3828 0.817351 71.7843 1.10184C72.1857 1.38632 72.4888 1.78846 72.6518 2.25267L74.6082 8.26517C75.2171 10.0942 76.2442 11.7559 77.6079 13.1184C78.9715 14.4809 80.6342 15.5065 82.4637 16.1138L88.4809 18.0679L88.6011 18.0979C89.0635 18.2625 89.4636 18.5661 89.7465 18.9671C90.0294 19.3681 90.1813 19.8468 90.1813 20.3376C90.1813 20.8283 90.0294 21.3071 89.7465 21.7081C89.4636 22.1091 89.0635 22.4127 88.6011 22.5772L82.584 24.5313C80.7545 25.1386 79.0918 26.1642 77.7281 27.5267C76.3644 28.8892 75.3373 30.5509 74.7284 32.3799L72.7721 38.3924L72.7142 38.5404C72.5746 38.866 72.364 39.1563 72.0976 39.3899C71.8313 39.6235 71.5161 39.7946 71.1751 39.8906C70.8341 39.9866 70.4759 40.0051 70.1268 39.9447C69.7777 39.8844 69.4466 39.7467 69.1576 39.5417C68.7569 39.2573 68.454 38.8558 68.2904 38.3924L66.3341 32.3799C65.891 31.0428 65.2248 29.7902 64.3638 28.6753ZM98.5333 44.5668L95.3467 43.5308C94.3791 43.2087 93.4999 42.6657 92.7786 41.9448C92.0573 41.2239 91.5138 40.3449 91.1911 39.3775L90.1551 36.1932C90.069 35.947 89.9084 35.7336 89.6957 35.5826C89.4829 35.4316 89.2285 35.3505 88.9677 35.3505C88.7068 35.3505 88.4523 35.4316 88.2396 35.5826C88.0269 35.7336 87.8663 35.947 87.7802 36.1932L86.7442 39.3775C86.4278 40.3383 85.8938 41.2129 85.1838 41.9334C84.4739 42.6538 83.6071 43.2005 82.6511 43.5308L79.4644 44.5668C79.2208 44.6549 79.0103 44.816 78.8615 45.028C78.7127 45.2401 78.6328 45.4929 78.6328 45.7519C78.6328 46.011 78.7127 46.2638 78.8615 46.4759C79.0103 46.6879 79.2208 46.849 79.4644 46.9371L82.6511 47.9731C83.001 48.0887 83.3386 48.2336 83.6639 48.4079L83.6709 48.4425C85.1553 49.2357 86.2786 50.5684 86.8089 52.1657L87.8449 55.35C87.9299 55.5864 88.0836 55.792 88.2862 55.9404C88.4889 56.0889 88.7313 56.1733 88.9823 56.183C89.2333 56.1927 89.4815 56.1272 89.695 55.9948C89.9085 55.8625 90.0776 55.6693 90.1806 55.4402V55.417L90.2176 55.3269L91.2535 52.1425C91.5764 51.1749 92.1203 50.2958 92.842 49.5749C93.5637 48.854 94.4434 48.3111 95.4114 47.9893L98.5981 46.9533C98.8417 46.8652 99.0522 46.7041 99.201 46.492C99.3498 46.28 99.4297 46.0272 99.4297 45.7681C99.4297 45.5091 99.3498 45.2563 99.201 45.0442C99.0522 44.8322 98.8417 44.6711 98.5981 44.583L98.5333 44.5668ZM48.5625 12.2288C50.5204 12.2319 52.4382 12.3799 54.316 12.6728L51.0369 13.7319C49.6329 14.213 48.4128 15.1179 47.545 16.3219C46.9206 17.1914 46.5044 18.1927 46.3332 19.2472C30.7701 20.3919 18.5 33.3766 18.5 49.2288C18.5 65.8325 31.9587 79.2913 48.5625 79.2913C64.4679 79.2913 77.4873 66.9402 78.5556 51.3054L81.2844 52.1911L81.5619 52.3299C81.7299 52.4224 81.8841 52.538 82.0244 52.6767C82.2319 52.8947 82.3897 53.155 82.4869 53.4398L83.5044 56.608C83.6847 57.2902 83.9877 57.933 84.3901 58.5019C83.0315 63.7565 80.53 68.6466 77.0641 72.8232L98.4223 94.1815C99.073 94.8322 99.4386 95.7148 99.4386 96.635C99.4386 97.5553 99.073 98.4379 98.4223 99.0886C97.7716 99.7393 96.889 100.105 95.9687 100.105C95.0485 100.105 94.1659 99.7393 93.5152 99.0886L72.1569 77.7303C65.5271 83.2337 57.1788 86.2407 48.5625 86.2288C28.1269 86.2288 11.5625 69.6644 11.5625 49.2288C11.5625 28.7932 28.1269 12.2288 48.5625 12.2288Z" fill="#6D6D6D"/>
</g>
<defs>
<clipPath id="clip0_4284_5068">
<rect width="111" height="111" fill="white" transform="translate(0 0.666504)"/>
</clipPath>
</defs>
</svg>
