<svg width="89" height="80" viewBox="0 0 89 80" fill="none" xmlns="http://www.w3.org/2000/svg">
<rect width="80" height="80" rx="40" fill="#F6F7F9"/>
<circle cx="86.6668" cy="46.6663" r="1.33333" fill="#FFDE65"/>
<circle cx="78.6668" cy="7.33333" r="1.33333" fill="#2DD4BF"/>
<circle cx="86.3333" cy="13.6663" r="2.33333" fill="#E5E7EB"/>
<circle cx="78.6668" cy="68.0003" r="1.33333" fill="#FF8092"/>
<rect opacity="0.01" x="6" y="6" width="67.4316" height="67.4316" fill="white"/>
<path fill-rule="evenodd" clip-rule="evenodd" d="M57.0556 15.5124C57.0556 14.7759 56.4584 14.1789 55.7219 14.1791L23.7094 14.1881C22.9732 14.1883 22.3765 14.7852 22.3765 15.5214L22.3765 43.4108C22.3765 43.6754 57.0556 43.5616 57.0556 43.4108V15.5124Z" fill="#D7DBEC"/>
<path fill-rule="evenodd" clip-rule="evenodd" d="M59.9453 19.3753C59.9453 18.6389 59.3484 18.042 58.612 18.042H20.8197C20.0833 18.042 19.4863 18.6389 19.4863 19.3753V63.4944C19.4863 64.4568 20.6693 64.917 21.3196 64.2075C21.7514 63.7365 22.4993 63.7542 22.9083 64.245L23.5672 65.0357C24.084 65.6558 25.0289 65.6781 25.5744 65.0831L26.1621 64.4419C26.7076 63.8469 27.6525 63.8692 28.1693 64.4893L28.6246 65.0357C29.1414 65.6558 30.0863 65.6781 30.6318 65.0831L31.2195 64.4419C31.7649 63.8469 32.7099 63.8692 33.2267 64.4893L33.682 65.0357C34.1987 65.6558 35.1437 65.6781 35.6891 65.0831L36.2769 64.4419C36.8223 63.8469 37.7673 63.8692 38.284 64.4893L38.7393 65.0357C39.2561 65.6558 40.201 65.6781 40.7465 65.0831L41.3342 64.4419C41.8797 63.8469 42.8246 63.8692 43.3414 64.4893L43.7967 65.0357C44.3135 65.6558 45.2584 65.6781 45.8039 65.0831L46.3916 64.4419C46.9371 63.8469 47.882 63.8692 48.3988 64.4893L48.8541 65.0357C49.3709 65.6558 50.3158 65.6781 50.8613 65.0831L51.449 64.4419C51.9944 63.8469 52.9394 63.8692 53.4561 64.4893L53.9115 65.0357C54.4282 65.6558 55.3732 65.6781 55.9186 65.0831L56.7926 64.1297C57.1866 63.6999 57.8691 63.716 58.2424 64.1639C58.819 64.8559 59.9453 64.4481 59.9453 63.5474V19.3753Z" fill="url(#paint0_linear_4532_5274)"/>
<rect x="25.3335" y="29.2705" width="28.6667" height="2" fill="white"/>
<rect x="25.3335" y="37.2705" width="28.6667" height="2" fill="white"/>
<rect x="25.3335" y="45.2705" width="28.6667" height="2" fill="white"/>
<path d="M59.7075 68.0778C64.6983 68.0778 68.7457 64.0304 68.7457 59.0382C68.7457 54.046 64.6983 50 59.7075 50C54.7139 50 50.6665 54.046 50.6665 59.0382C50.6665 64.0304 54.7139 68.0778 59.7075 68.0778Z" fill="#009A29"/>
<path d="M58.6124 63.3113C58.5888 63.3113 58.5666 63.3113 58.5443 63.3099C58.3943 63.2988 58.2484 63.2571 58.1164 63.1849C57.9844 63.1126 57.8705 63.0126 57.7801 62.8917L54.8568 58.9263C54.7012 58.7053 54.6373 58.4316 54.679 58.1649C54.7234 57.8967 54.8693 57.6577 55.0874 57.4966C55.3042 57.3354 55.5779 57.2673 55.8461 57.3048C56.1142 57.3437 56.356 57.4854 56.5213 57.7008L58.7111 60.6756C58.7125 60.6756 58.7138 60.6769 58.7152 60.6769C58.7152 60.6783 58.7166 60.6783 58.718 60.6783C58.718 60.6783 58.7194 60.6783 58.7208 60.6769C58.7222 60.6769 58.7236 60.6769 58.7236 60.6756L63.5727 55.6486C63.763 55.4513 64.0242 55.3374 64.2979 55.3332C64.5716 55.3277 64.8356 55.4319 65.0343 55.6222C65.2302 55.8126 65.3442 56.0738 65.3497 56.3475C65.3539 56.6212 65.2497 56.8866 65.0593 57.0825L59.3544 62.9973C59.2585 63.0959 59.1432 63.1751 59.0153 63.2293C58.8875 63.2835 58.75 63.3113 58.6124 63.3113Z" fill="white"/>
<defs>
<linearGradient id="paint0_linear_4532_5274" x1="19.4863" y1="18.042" x2="66.9289" y2="57.8937" gradientUnits="userSpaceOnUse">
<stop stop-color="#FFB588"/>
<stop offset="1" stop-color="#F3792E"/>
</linearGradient>
</defs>
</svg>
